<svg xmlns="http://www.w3.org/2000/svg" viewBox="0 0 64 64">
  <defs>
    <linearGradient id="g" x1="0" x2="1" y1="0" y2="1">
      <stop offset="0%" stop-color="#667eea"/>
      <stop offset="100%" stop-color="#764ba2"/>
    </linearGradient>
  </defs>
  <rect x="6" y="6" width="52" height="52" rx="12" fill="url(#g)"/>
  <!-- Curly braces to hint code/containers -->
  <path d="M22 20c-3 0-5 2-5 5v2c0 2-1 3-3 3h-2v4h2c2 0 3 1 3 3v2c0 3 2 5 5 5" stroke="#fff" stroke-width="3" fill="none"/>
  <path d="M42 20c3 0 5 2 5 5v2c0 2 1 3 3 3h2v4h-2c-2 0-3 1-3 3v2c0 3-2 5-5 5" stroke="#fff" stroke-width="3" fill="none"/>
  <!-- C# monogram -->
  <text x="32" y="36" text-anchor="middle" font-family="Segoe UI, Arial, sans-serif" font-size="16" font-weight="700" fill="#ffffff">C#</text>
</svg>
